<svg id="profile-icon" viewBox="0 0 23.46 24">
            <g id="Camada_2" data-name="Camada 2">
                <g id="icons">
                    <path class="cls-1" d="M22,17.78c-.65-1-2.81-1.63-4.95-2.52a26,26,0,0,1-2.65-1.21l0-2.05a3.88,3.88,0,0,0,1.05-2.55c.5.14,1-.75,1.06-1.22s-.07-1.71-.69-1.59A12.69,12.69,0,0,0,16,4.39,4.11,4.11,0,0,0,11.73,1,4.1,4.1,0,0,0,7.45,4.39a12.47,12.47,0,0,0,.17,2.25C7,6.52,6.91,7.78,6.94,8.23S7.49,9.59,8,9.45A3.82,3.82,0,0,0,9.05,12l0,2.05a26,26,0,0,1-2.65,1.21c-2.14.89-4.31,1.51-4.95,2.52S1,23,1,23H22.44S22.61,18.68,22,17.78Z"></path>
                </g>
            </g>
        </svg>