<svg width="5349" height="5807" viewBox="0 0 5349 5807" fill="none" xmlns="http://www.w3.org/2000/svg">
<path d="M2712.3 28.0653L208.67 1447.9C177.353 1465.66 158 1498.89 158 1534.89V4288.38C158 4324.55 177.537 4357.91 209.091 4375.6L2712.73 5779.49C2743.19 5796.57 2780.36 5796.52 2810.78 5779.35L5298.15 4375.65C5329.57 4357.92 5349 4324.64 5349 4288.56V1534.7C5349 1498.8 5329.75 1465.65 5298.57 1447.85L2811.2 28.2012C2780.57 10.7162 2742.99 10.6646 2712.3 28.0653Z" fill="#ECF5EA"/>
<path d="M2554.3 28.0653L50.6695 1447.9C19.3527 1465.66 0 1498.89 0 1534.89V4288.38C0 4324.55 19.5374 4357.91 51.0906 4375.6L2554.73 5779.49C2585.19 5796.57 2622.36 5796.52 2652.78 5779.35L5140.15 4375.65C5171.57 4357.92 5191 4324.64 5191 4288.56V1534.7C5191 1498.8 5171.75 1465.65 5140.57 1447.85L2653.2 28.2012C2622.57 10.7162 2584.99 10.6646 2554.3 28.0653Z" fill="#2F6C1C"/>
</svg>
