<svg width="128" height="44" viewBox="0 0 128 44" fill="none" xmlns="http://www.w3.org/2000/svg">
<path d="M54.32 19C54.22 19 54.13 18.965 54.05 18.895C53.97 18.815 53.93 18.72 53.93 18.61V8.89C53.93 8.78 53.97 8.69 54.05 8.62C54.13 8.54 54.22 8.5 54.32 8.5H58.595C59.955 8.5 61.02 8.81 61.79 9.43C62.57 10.05 62.96 10.915 62.96 12.025C62.96 12.725 62.8 13.32 62.48 13.81C62.16 14.3 61.74 14.685 61.22 14.965L63.17 18.505C63.2 18.565 63.215 18.62 63.215 18.67C63.215 18.76 63.185 18.84 63.125 18.91C63.065 18.97 62.99 19 62.9 19H60.365C60.175 19 60.03 18.955 59.93 18.865C59.83 18.765 59.765 18.675 59.735 18.595L58.235 15.505H57.155V18.61C57.155 18.72 57.115 18.815 57.035 18.895C56.965 18.965 56.875 19 56.765 19H54.32ZM57.155 13.03H58.58C58.93 13.03 59.19 12.935 59.36 12.745C59.53 12.545 59.615 12.3 59.615 12.01C59.615 11.71 59.53 11.455 59.36 11.245C59.2 11.035 58.94 10.93 58.58 10.93H57.155V13.03ZM69.8905 19.15C68.9605 19.15 68.1405 19.005 67.4305 18.715C66.7305 18.425 66.1805 17.975 65.7805 17.365C65.3905 16.745 65.1955 15.965 65.1955 15.025V8.89C65.1955 8.78 65.2355 8.69 65.3155 8.62C65.3955 8.54 65.4855 8.5 65.5855 8.5H68.0305C68.1405 8.5 68.2305 8.54 68.3005 8.62C68.3805 8.69 68.4205 8.78 68.4205 8.89V14.98C68.4205 15.49 68.5455 15.875 68.7955 16.135C69.0455 16.395 69.4055 16.525 69.8755 16.525C70.3455 16.525 70.7005 16.395 70.9405 16.135C71.1905 15.875 71.3155 15.49 71.3155 14.98V8.89C71.3155 8.78 71.3555 8.69 71.4355 8.62C71.5155 8.54 71.6105 8.5 71.7205 8.5H74.1505C74.2605 8.5 74.3505 8.54 74.4205 8.62C74.5005 8.69 74.5405 8.78 74.5405 8.89V15.025C74.5405 15.965 74.3455 16.745 73.9555 17.365C73.5655 17.975 73.0205 18.425 72.3205 18.715C71.6205 19.005 70.8105 19.15 69.8905 19.15ZM77.4704 19C77.3704 19 77.2804 18.965 77.2004 18.895C77.1204 18.815 77.0804 18.72 77.0804 18.61V8.89C77.0804 8.78 77.1204 8.69 77.2004 8.62C77.2804 8.54 77.3704 8.5 77.4704 8.5H79.4654C79.6454 8.5 79.7754 8.545 79.8554 8.635C79.9354 8.715 79.9904 8.775 80.0204 8.815L83.1104 13.78V8.89C83.1104 8.78 83.1504 8.69 83.2304 8.62C83.3104 8.54 83.4004 8.5 83.5004 8.5H85.7654C85.8754 8.5 85.9654 8.54 86.0354 8.62C86.1154 8.69 86.1554 8.78 86.1554 8.89V18.61C86.1554 18.72 86.1154 18.815 86.0354 18.895C85.9654 18.965 85.8754 19 85.7654 19H83.7854C83.5954 19 83.4604 18.96 83.3804 18.88C83.3004 18.79 83.2454 18.725 83.2154 18.685L80.1254 14.005V18.61C80.1254 18.72 80.0854 18.815 80.0054 18.895C79.9354 18.965 79.8454 19 79.7354 19H77.4704ZM91.5024 19C91.3924 19 91.2974 18.965 91.2174 18.895C91.1474 18.815 91.1124 18.72 91.1124 18.61V11.29H88.5324C88.4224 11.29 88.3274 11.255 88.2474 11.185C88.1774 11.105 88.1424 11.01 88.1424 10.9V8.89C88.1424 8.78 88.1774 8.69 88.2474 8.62C88.3274 8.54 88.4224 8.5 88.5324 8.5H96.9624C97.0724 8.5 97.1624 8.54 97.2324 8.62C97.3124 8.69 97.3524 8.78 97.3524 8.89V10.9C97.3524 11.01 97.3124 11.105 97.2324 11.185C97.1624 11.255 97.0724 11.29 96.9624 11.29H94.3824V18.61C94.3824 18.72 94.3424 18.815 94.2624 18.895C94.1924 18.965 94.1024 19 93.9924 19H91.5024ZM99.7126 19C99.6126 19 99.5226 18.965 99.4426 18.895C99.3626 18.815 99.3226 18.72 99.3226 18.61V8.89C99.3226 8.78 99.3626 8.69 99.4426 8.62C99.5226 8.54 99.6126 8.5 99.7126 8.5H102.263C102.373 8.5 102.463 8.54 102.533 8.62C102.613 8.69 102.653 8.78 102.653 8.89V18.61C102.653 18.72 102.613 18.815 102.533 18.895C102.463 18.965 102.373 19 102.263 19H99.7126ZM105.663 19C105.553 19 105.458 18.965 105.378 18.895C105.298 18.815 105.258 18.72 105.258 18.61V8.89C105.258 8.78 105.298 8.69 105.378 8.62C105.458 8.54 105.553 8.5 105.663 8.5H107.658C107.838 8.5 107.973 8.55 108.063 8.65C108.153 8.75 108.213 8.82 108.243 8.86L110.643 13.03L113.043 8.86C113.073 8.82 113.133 8.75 113.223 8.65C113.313 8.55 113.448 8.5 113.628 8.5H115.623C115.733 8.5 115.823 8.54 115.893 8.62C115.973 8.69 116.013 8.78 116.013 8.89V18.61C116.013 18.72 115.973 18.815 115.893 18.895C115.823 18.965 115.733 19 115.623 19H113.373C113.263 19 113.168 18.965 113.088 18.895C113.018 18.815 112.983 18.72 112.983 18.61V13.75L111.633 16.12C111.583 16.2 111.518 16.28 111.438 16.36C111.358 16.44 111.243 16.48 111.093 16.48H110.178C110.038 16.48 109.928 16.44 109.848 16.36C109.768 16.28 109.703 16.2 109.653 16.12L108.303 13.75V18.61C108.303 18.72 108.263 18.815 108.183 18.895C108.113 18.965 108.023 19 107.913 19H105.663ZM119.025 19C118.925 19 118.835 18.965 118.755 18.895C118.675 18.815 118.635 18.72 118.635 18.61V8.89C118.635 8.78 118.675 8.69 118.755 8.62C118.835 8.54 118.925 8.5 119.025 8.5H126.375C126.485 8.5 126.58 8.54 126.66 8.62C126.74 8.69 126.78 8.78 126.78 8.89V10.66C126.78 10.76 126.74 10.85 126.66 10.93C126.58 11.01 126.485 11.05 126.375 11.05H121.74V12.535H126.045C126.155 12.535 126.25 12.575 126.33 12.655C126.41 12.725 126.45 12.815 126.45 12.925V14.545C126.45 14.655 126.41 14.75 126.33 14.83C126.25 14.9 126.155 14.935 126.045 14.935H121.74V16.45H126.495C126.605 16.45 126.7 16.49 126.78 16.57C126.86 16.65 126.9 16.745 126.9 16.855V18.61C126.9 18.72 126.86 18.815 126.78 18.895C126.7 18.965 126.605 19 126.495 19H119.025ZM54.32 36C54.22 36 54.13 35.965 54.05 35.895C53.97 35.815 53.93 35.72 53.93 35.61V25.89C53.93 25.78 53.97 25.69 54.05 25.62C54.13 25.54 54.22 25.5 54.32 25.5H56.315C56.495 25.5 56.625 25.545 56.705 25.635C56.785 25.715 56.84 25.775 56.87 25.815L59.96 30.78V25.89C59.96 25.78 60 25.69 60.08 25.62C60.16 25.54 60.25 25.5 60.35 25.5H62.615C62.725 25.5 62.815 25.54 62.885 25.62C62.965 25.69 63.005 25.78 63.005 25.89V35.61C63.005 35.72 62.965 35.815 62.885 35.895C62.815 35.965 62.725 36 62.615 36H60.635C60.445 36 60.31 35.96 60.23 35.88C60.15 35.79 60.095 35.725 60.065 35.685L56.975 31.005V35.61C56.975 35.72 56.935 35.815 56.855 35.895C56.785 35.965 56.695 36 56.585 36H54.32ZM70.167 36.15C69.207 36.15 68.372 36 67.662 35.7C66.962 35.4 66.407 34.95 65.997 34.35C65.597 33.74 65.382 32.985 65.352 32.085C65.342 31.665 65.337 31.235 65.337 30.795C65.337 30.345 65.342 29.9 65.352 29.46C65.382 28.57 65.597 27.82 65.997 27.21C66.407 26.6 66.967 26.14 67.677 25.83C68.387 25.51 69.217 25.35 70.167 25.35C71.107 25.35 71.932 25.51 72.642 25.83C73.352 26.14 73.912 26.6 74.322 27.21C74.732 27.82 74.947 28.57 74.967 29.46C74.987 29.9 74.997 30.345 74.997 30.795C74.997 31.235 74.987 31.665 74.967 32.085C74.937 32.985 74.717 33.74 74.307 34.35C73.907 34.95 73.352 35.4 72.642 35.7C71.942 36 71.117 36.15 70.167 36.15ZM70.167 33.6C70.587 33.6 70.932 33.475 71.202 33.225C71.472 32.965 71.612 32.555 71.622 31.995C71.642 31.565 71.652 31.15 71.652 30.75C71.652 30.34 71.642 29.925 71.622 29.505C71.612 29.135 71.542 28.83 71.412 28.59C71.292 28.35 71.122 28.175 70.902 28.065C70.692 27.955 70.447 27.9 70.167 27.9C69.887 27.9 69.637 27.955 69.417 28.065C69.197 28.175 69.022 28.35 68.892 28.59C68.772 28.83 68.707 29.135 68.697 29.505C68.687 29.925 68.682 30.34 68.682 30.75C68.682 31.15 68.687 31.565 68.697 31.995C68.717 32.555 68.857 32.965 69.117 33.225C69.387 33.475 69.737 33.6 70.167 33.6ZM77.6755 36C77.5755 36 77.4855 35.965 77.4055 35.895C77.3255 35.815 77.2855 35.72 77.2855 35.61V25.89C77.2855 25.78 77.3255 25.69 77.4055 25.62C77.4855 25.54 77.5755 25.5 77.6755 25.5H81.7855C82.7555 25.5 83.5955 25.66 84.3055 25.98C85.0155 26.29 85.5755 26.75 85.9855 27.36C86.3955 27.97 86.6155 28.72 86.6455 29.61C86.6655 30.04 86.6755 30.42 86.6755 30.75C86.6755 31.08 86.6655 31.455 86.6455 31.875C86.6055 32.815 86.3905 33.59 86.0005 34.2C85.6205 34.81 85.0805 35.265 84.3805 35.565C83.6805 35.855 82.8405 36 81.8605 36H77.6755ZM80.5105 33.45H81.7855C82.1155 33.45 82.3955 33.395 82.6255 33.285C82.8555 33.175 83.0355 33.005 83.1655 32.775C83.2955 32.535 83.3655 32.23 83.3755 31.86C83.3855 31.57 83.3905 31.31 83.3905 31.08C83.4005 30.85 83.4005 30.62 83.3905 30.39C83.3905 30.16 83.3855 29.905 83.3755 29.625C83.3555 29.075 83.1955 28.675 82.8955 28.425C82.6055 28.175 82.2105 28.05 81.7105 28.05H80.5105V33.45ZM89.3386 36C89.2386 36 89.1486 35.965 89.0686 35.895C88.9886 35.815 88.9486 35.72 88.9486 35.61V25.89C88.9486 25.78 88.9886 25.69 89.0686 25.62C89.1486 25.54 89.2386 25.5 89.3386 25.5H96.6886C96.7986 25.5 96.8936 25.54 96.9736 25.62C97.0536 25.69 97.0936 25.78 97.0936 25.89V27.66C97.0936 27.76 97.0536 27.85 96.9736 27.93C96.8936 28.01 96.7986 28.05 96.6886 28.05H92.0536V29.535H96.3586C96.4686 29.535 96.5636 29.575 96.6436 29.655C96.7236 29.725 96.7636 29.815 96.7636 29.925V31.545C96.7636 31.655 96.7236 31.75 96.6436 31.83C96.5636 31.9 96.4686 31.935 96.3586 31.935H92.0536V33.45H96.8086C96.9186 33.45 97.0136 33.49 97.0936 33.57C97.1736 33.65 97.2136 33.745 97.2136 33.855V35.61C97.2136 35.72 97.1736 35.815 97.0936 35.895C97.0136 35.965 96.9186 36 96.8086 36H89.3386Z" fill="#295D18"/>
<path fill-rule="evenodd" clip-rule="evenodd" d="M33.9822 44C41.7159 40.1989 47.0293 32.3172 47.0293 23.2105C47.0293 10.3916 36.5014 0 23.5147 0C10.528 0 0 10.3916 0 23.2105C0 31.1879 4.07741 38.2255 10.2874 42.4033L10.2877 23.2105C10.2877 16 16.2096 10.1547 23.5147 10.1547C30.8197 10.1547 36.7417 16 36.7417 23.2105C36.7417 29.903 31.6401 35.4194 25.066 36.1773L33.9822 44Z" fill="url(#paint0_radial_5_420)"/>
<defs>
<radialGradient id="paint0_radial_5_420" cx="0" cy="0" r="1" gradientUnits="userSpaceOnUse" gradientTransform="translate(2.1377 15.2341) rotate(38.8006) scale(50.5493 53.2348)">
<stop stop-color="#2F6C1C"/>
<stop offset="1" stop-color="#265616"/>
</radialGradient>
</defs>
</svg>
